{
    "asset" : {
        "generator" : "Khronos glTF Blender I/O v1.8.19",
        "version" : "2.0"
    },
    "scene" : 0,
    "scenes" : [
        {
            "extras" : {
                "automirror" : {}
            },
            "name" : "Scene",
            "nodes" : [
                0
            ]
        }
    ],
    "nodes" : [
        {
            "mesh" : 0,
            "name" : "Person",
            "scale" : [
                0.11999999731779099,
                0.11999999731779099,
                0.047999996691942215
            ],
            "translation" : [
                0,
                1,
                0
            ]
        }
    ],
    "materials" : [
        {
            "doubleSided" : true,
            "name" : "SkinMat",
            "pbrMetallicRoughness" : {
                "baseColorFactor" : [
                    0.800000011920929,
                    0.800000011920929,
                    0.800000011920929,
                    1
                ],
                "metallicFactor" : 0,
                "roughnessFactor" : 0.5
            }
        },
        {
            "doubleSided" : true,
            "name" : "PantsMat",
            "pbrMetallicRoughness" : {
                "baseColorFactor" : [
                    0.800000011920929,
                    0.800000011920929,
                    0.800000011920929,
                    1
                ],
                "metallicFactor" : 0,
                "roughnessFactor" : 0.5
            }
        },
        {
            "doubleSided" : true,
            "name" : "ShoeMat",
            "pbrMetallicRoughness" : {
                "baseColorFactor" : [
                    0.800000011920929,
                    0.800000011920929,
                    0.800000011920929,
                    1
                ],
                "metallicFactor" : 0,
                "roughnessFactor" : 0.5
            }
        },
        {
            "doubleSided" : true,
            "name" : "ShirtMat",
            "pbrMetallicRoughness" : {
                "baseColorFactor" : [
                    0.800000011920929,
                    0.800000011920929,
                    0.800000011920929,
                    1
                ],
                "metallicFactor" : 0,
                "roughnessFactor" : 0.5
            }
        },
        {
            "alphaMode" : "BLEND",
            "doubleSided" : true,
            "name" : "EyeMat",
            "pbrMetallicRoughness" : {
                "baseColorTexture" : {
                    "index" : 0
                },
                "metallicFactor" : 0,
                "roughnessFactor" : 0.5
            }
        },
        {
            "alphaMode" : "BLEND",
            "doubleSided" : true,
            "name" : "EyeBrowMat",
            "pbrMetallicRoughness" : {
                "baseColorTexture" : {
                    "index" : 1
                },
                "metallicFactor" : 0,
                "roughnessFactor" : 0.5
            }
        },
        {
            "alphaMode" : "BLEND",
            "doubleSided" : true,
            "name" : "MouthMat",
            "pbrMetallicRoughness" : {
                "baseColorTexture" : {
                    "index" : 2
                },
                "metallicFactor" : 0,
                "roughnessFactor" : 0.5
            }
        }
    ],
    "meshes" : [
        {
            "name" : "Cube.002",
            "primitives" : [
                {
                    "attributes" : {
                        "POSITION" : 0,
                        "NORMAL" : 1,
                        "TEXCOORD_0" : 2
                    },
                    "indices" : 3,
                    "material" : 0
                },
                {
                    "attributes" : {
                        "POSITION" : 4,
                        "NORMAL" : 5,
                        "TEXCOORD_0" : 6
                    },
                    "indices" : 7,
                    "material" : 1
                },
                {
                    "attributes" : {
                        "POSITION" : 8,
                        "NORMAL" : 9,
                        "TEXCOORD_0" : 10
                    },
                    "indices" : 11,
                    "material" : 2
                },
                {
                    "attributes" : {
                        "POSITION" : 12,
                        "NORMAL" : 13,
                        "TEXCOORD_0" : 14
                    },
                    "indices" : 15,
                    "material" : 3
                },
                {
                    "attributes" : {
                        "POSITION" : 16,
                        "NORMAL" : 17,
                        "TEXCOORD_0" : 18
                    },
                    "indices" : 19,
                    "material" : 4
                },
                {
                    "attributes" : {
                        "POSITION" : 20,
                        "NORMAL" : 21,
                        "TEXCOORD_0" : 22
                    },
                    "indices" : 23,
                    "material" : 5
                },
                {
                    "attributes" : {
                        "POSITION" : 24,
                        "NORMAL" : 25,
                        "TEXCOORD_0" : 26
                    },
                    "indices" : 27,
                    "material" : 6
                }
            ]
        }
    ],
    "textures" : [
        {
            "sampler" : 0,
            "source" : 0
        },
        {
            "sampler" : 0,
            "source" : 1
        },
        {
            "sampler" : 0,
            "source" : 2
        }
    ],
    "images" : [
        {
            "bufferView" : 20,
            "mimeType" : "image/png",
            "name" : "EyeTexture"
        },
        {
            "bufferView" : 25,
            "mimeType" : "image/png",
            "name" : "EyebrowTexture"
        },
        {
            "bufferView" : 30,
            "mimeType" : "image/png",
            "name" : "MouthTexture"
        }
    ],
    "accessors" : [
        {
            "bufferView" : 0,
            "componentType" : 5126,
            "count" : 2217,
            "max" : [
                6.689358234405518,
                5.904311656951904,
                2.3343300819396973
            ],
            "min" : [
                -6.689358234405518,
                -2.229332208633423,
                -2.2604241371154785
            ],
            "type" : "VEC3"
        },
        {
            "bufferView" : 1,
            "componentType" : 5126,
            "count" : 2217,
            "type" : "VEC3"
        },
        {
            "bufferView" : 2,
            "componentType" : 5126,
            "count" : 2217,
            "type" : "VEC2"
        },
        {
            "bufferView" : 3,
            "componentType" : 5123,
            "count" : 3390,
            "type" : "SCALAR"
        },
        {
            "bufferView" : 4,
            "componentType" : 5126,
            "count" : 508,
            "max" : [
                1.2738850116729736,
                -1.2518551349639893,
                2.0509119033813477
            ],
            "min" : [
                -1.2738850116729736,
                -7.665678977966309,
                -2.2604241371154785
            ],
            "type" : "VEC3"
        },
        {
            "bufferView" : 5,
            "componentType" : 5126,
            "count" : 508,
            "type" : "VEC3"
        },
        {
            "bufferView" : 6,
            "componentType" : 5126,
            "count" : 508,
            "type" : "VEC2"
        },
        {
            "bufferView" : 7,
            "componentType" : 5123,
            "count" : 792,
            "type" : "SCALAR"
        },
        {
            "bufferView" : 8,
            "componentType" : 5126,
            "count" : 304,
            "max" : [
                1.1277035474777222,
                -7.532012462615967,
                3.8618383407592773
            ],
            "min" : [
                -1.1277035474777222,
                -8.355709075927734,
                -0.9348008632659912
            ],
            "type" : "VEC3"
        },
        {
            "bufferView" : 9,
            "componentType" : 5126,
            "count" : 304,
            "type" : "VEC3"
        },
        {
            "bufferView" : 10,
            "componentType" : 5126,
            "count" : 304,
            "type" : "VEC2"
        },
        {
            "bufferView" : 11,
            "componentType" : 5123,
            "count" : 480,
            "type" : "SCALAR"
        },
        {
            "bufferView" : 12,
            "componentType" : 5126,
            "count" : 564,
            "max" : [
                4.970450401306152,
                3.7911603450775146,
                2.2324774265289307
            ],
            "min" : [
                -4.970450401306152,
                -1.2518551349639893,
                -2.4214348793029785
            ],
            "type" : "VEC3"
        },
        {
            "bufferView" : 13,
            "componentType" : 5126,
            "count" : 564,
            "type" : "VEC3"
        },
        {
            "bufferView" : 14,
            "componentType" : 5126,
            "count" : 564,
            "type" : "VEC2"
        },
        {
            "bufferView" : 15,
            "componentType" : 5123,
            "count" : 870,
            "type" : "SCALAR"
        },
        {
            "bufferView" : 16,
            "componentType" : 5126,
            "count" : 10,
            "max" : [
                0.6138056516647339,
                5.361965656280518,
                2.133735418319702
            ],
            "min" : [
                -0.6138056516647339,
                4.961541175842285,
                1.5593780279159546
            ],
            "type" : "VEC3"
        },
        {
            "bufferView" : 17,
            "componentType" : 5126,
            "count" : 10,
            "type" : "VEC3"
        },
        {
            "bufferView" : 18,
            "componentType" : 5126,
            "count" : 10,
            "type" : "VEC2"
        },
        {
            "bufferView" : 19,
            "componentType" : 5123,
            "count" : 18,
            "type" : "SCALAR"
        },
        {
            "bufferView" : 21,
            "componentType" : 5126,
            "count" : 8,
            "max" : [
                0.6015713810920715,
                5.634773254394531,
                1.9542334079742432
            ],
            "min" : [
                -0.6015713810920715,
                5.298123359680176,
                1.0434722900390625
            ],
            "type" : "VEC3"
        },
        {
            "bufferView" : 22,
            "componentType" : 5126,
            "count" : 8,
            "type" : "VEC3"
        },
        {
            "bufferView" : 23,
            "componentType" : 5126,
            "count" : 8,
            "type" : "VEC2"
        },
        {
            "bufferView" : 24,
            "componentType" : 5123,
            "count" : 12,
            "type" : "SCALAR"
        },
        {
            "bufferView" : 26,
            "componentType" : 5126,
            "count" : 8,
            "max" : [
                0.5426123738288879,
                4.723186016082764,
                2.212707757949829
            ],
            "min" : [
                -0.5426123738288879,
                4.132013320922852,
                1.5555801391601562
            ],
            "type" : "VEC3"
        },
        {
            "bufferView" : 27,
            "componentType" : 5126,
            "count" : 8,
            "type" : "VEC3"
        },
        {
            "bufferView" : 28,
            "componentType" : 5126,
            "count" : 8,
            "type" : "VEC2"
        },
        {
            "bufferView" : 29,
            "componentType" : 5123,
            "count" : 12,
            "type" : "SCALAR"
        }
    ],
    "bufferViews" : [
        {
            "buffer" : 0,
            "byteLength" : 26604,
            "byteOffset" : 0
        },
        {
            "buffer" : 0,
            "byteLength" : 26604,
            "byteOffset" : 26604
        },
        {
            "buffer" : 0,
            "byteLength" : 17736,
            "byteOffset" : 53208
        },
        {
            "buffer" : 0,
            "byteLength" : 6780,
            "byteOffset" : 70944
        },
        {
            "buffer" : 0,
            "byteLength" : 6096,
            "byteOffset" : 77724
        },
        {
            "buffer" : 0,
            "byteLength" : 6096,
            "byteOffset" : 83820
        },
        {
            "buffer" : 0,
            "byteLength" : 4064,
            "byteOffset" : 89916
        },
        {
            "buffer" : 0,
            "byteLength" : 1584,
            "byteOffset" : 93980
        },
        {
            "buffer" : 0,
            "byteLength" : 3648,
            "byteOffset" : 95564
        },
        {
            "buffer" : 0,
            "byteLength" : 3648,
            "byteOffset" : 99212
        },
        {
            "buffer" : 0,
            "byteLength" : 2432,
            "byteOffset" : 102860
        },
        {
            "buffer" : 0,
            "byteLength" : 960,
            "byteOffset" : 105292
        },
        {
            "buffer" : 0,
            "byteLength" : 6768,
            "byteOffset" : 106252
        },
        {
            "buffer" : 0,
            "byteLength" : 6768,
            "byteOffset" : 113020
        },
        {
            "buffer" : 0,
            "byteLength" : 4512,
            "byteOffset" : 119788
        },
        {
            "buffer" : 0,
            "byteLength" : 1740,
            "byteOffset" : 124300
        },
        {
            "buffer" : 0,
            "byteLength" : 120,
            "byteOffset" : 126040
        },
        {
            "buffer" : 0,
            "byteLength" : 120,
            "byteOffset" : 126160
        },
        {
            "buffer" : 0,
            "byteLength" : 80,
            "byteOffset" : 126280
        },
        {
            "buffer" : 0,
            "byteLength" : 36,
            "byteOffset" : 126360
        },
        {
            "buffer" : 0,
            "byteLength" : 8406,
            "byteOffset" : 126396
        },
        {
            "buffer" : 0,
            "byteLength" : 96,
            "byteOffset" : 134804
        },
        {
            "buffer" : 0,
            "byteLength" : 96,
            "byteOffset" : 134900
        },
        {
            "buffer" : 0,
            "byteLength" : 64,
            "byteOffset" : 134996
        },
        {
            "buffer" : 0,
            "byteLength" : 24,
            "byteOffset" : 135060
        },
        {
            "buffer" : 0,
            "byteLength" : 5357,
            "byteOffset" : 135084
        },
        {
            "buffer" : 0,
            "byteLength" : 96,
            "byteOffset" : 140444
        },
        {
            "buffer" : 0,
            "byteLength" : 96,
            "byteOffset" : 140540
        },
        {
            "buffer" : 0,
            "byteLength" : 64,
            "byteOffset" : 140636
        },
        {
            "buffer" : 0,
            "byteLength" : 24,
            "byteOffset" : 140700
        },
        {
            "buffer" : 0,
            "byteLength" : 5244,
            "byteOffset" : 140724
        }
    ],
    "samplers" : [
        {
            "magFilter" : 9728,
            "minFilter" : 9984
        }
    ],
    "buffers" : [
        {
            "byteLength" : 145968,
            "uri" : "data:application/octet-stream;base64,"
        }
    ]
}
