{
    "asset" : {
        "generator" : "Khronos glTF Blender I/O v1.8.19",
        "version" : "2.0"
    },
    "scene" : 0,
    "scenes" : [
        {
            "extras" : {
                "automirror" : {
                    "axis" : 2
                }
            },
            "name" : "Scene",
            "nodes" : [
                0
            ]
        }
    ],
    "nodes" : [
        {
            "mesh" : 0,
            "name" : "TreeLeaves",
            "rotation" : [
                0,
                -0.7835046648979187,
                0,
                0.6213858723640442
            ],
            "scale" : [
                0.49422842264175415,
                0.49422842264175415,
                0.49422842264175415
            ]
        }
    ],
    "materials" : [
        {
            "doubleSided" : true,
            "name" : "TreeMat",
            "pbrMetallicRoughness" : {
                "baseColorTexture" : {
                    "index" : 0
                },
                "metallicFactor" : 0,
                "roughnessFactor" : 0.5
            }
        },
        {
            "alphaMode" : "BLEND",
            "doubleSided" : true,
            "name" : "Leaves",
            "pbrMetallicRoughness" : {
                "baseColorTexture" : {
                    "index" : 1
                },
                "metallicFactor" : 0,
                "roughnessFactor" : 0.5
            }
        }
    ],
    "meshes" : [
        {
            "name" : "Cube.001",
            "primitives" : [
                {
                    "attributes" : {
                        "POSITION" : 0,
                        "NORMAL" : 1,
                        "TEXCOORD_0" : 2
                    },
                    "indices" : 3,
                    "material" : 0
                },
                {
                    "attributes" : {
                        "POSITION" : 4,
                        "NORMAL" : 5,
                        "TEXCOORD_0" : 6
                    },
                    "indices" : 7,
                    "material" : 1
                }
            ]
        }
    ],
    "textures" : [
        {
            "sampler" : 0,
            "source" : 0
        },
        {
            "sampler" : 0,
            "source" : 1
        }
    ],
    "images" : [
        {
            "bufferView" : 4,
            "mimeType" : "image/png",
            "name" : "Wood"
        },
        {
            "bufferView" : 9,
            "mimeType" : "image/png",
            "name" : "Leaves.png"
        }
    ],
    "accessors" : [
        {
            "bufferView" : 0,
            "componentType" : 5126,
            "count" : 1934,
            "max" : [
                4.165063858032227,
                12.311299324035645,
                3.865622043609619
            ],
            "min" : [
                -4.2634172439575195,
                -1,
                -6.395158767700195
            ],
            "type" : "VEC3"
        },
        {
            "bufferView" : 1,
            "componentType" : 5126,
            "count" : 1934,
            "type" : "VEC3"
        },
        {
            "bufferView" : 2,
            "componentType" : 5126,
            "count" : 1934,
            "type" : "VEC2"
        },
        {
            "bufferView" : 3,
            "componentType" : 5123,
            "count" : 2904,
            "type" : "SCALAR"
        },
        {
            "bufferView" : 5,
            "componentType" : 5126,
            "count" : 2564,
            "max" : [
                6.426053047180176,
                14.574291229248047,
                5.413942337036133
            ],
            "min" : [
                -5.935556411743164,
                -0.05242657661437988,
                -8.128841400146484
            ],
            "type" : "VEC3"
        },
        {
            "bufferView" : 6,
            "componentType" : 5126,
            "count" : 2564,
            "type" : "VEC3"
        },
        {
            "bufferView" : 7,
            "componentType" : 5126,
            "count" : 2564,
            "type" : "VEC2"
        },
        {
            "bufferView" : 8,
            "componentType" : 5123,
            "count" : 3846,
            "type" : "SCALAR"
        }
    ],
    "bufferViews" : [
        {
            "buffer" : 0,
            "byteLength" : 23208,
            "byteOffset" : 0
        },
        {
            "buffer" : 0,
            "byteLength" : 23208,
            "byteOffset" : 23208
        },
        {
            "buffer" : 0,
            "byteLength" : 15472,
            "byteOffset" : 46416
        },
        {
            "buffer" : 0,
            "byteLength" : 5808,
            "byteOffset" : 61888
        },
        {
            "buffer" : 0,
            "byteLength" : 782,
            "byteOffset" : 67696
        },
        {
            "buffer" : 0,
            "byteLength" : 30768,
            "byteOffset" : 68480
        },
        {
            "buffer" : 0,
            "byteLength" : 30768,
            "byteOffset" : 99248
        },
        {
            "buffer" : 0,
            "byteLength" : 20512,
            "byteOffset" : 130016
        },
        {
            "buffer" : 0,
            "byteLength" : 7692,
            "byteOffset" : 150528
        },
        {
            "buffer" : 0,
            "byteLength" : 1388,
            "byteOffset" : 158220
        }
    ],
    "samplers" : [
        {
            "magFilter" : 9728,
            "minFilter" : 9984
        }
    ],
    "buffers" : [
        {
            "byteLength" : 159608,
            "uri" : "data:application/octet-stream;base64,"
        }
    ]
}
